<svg width="641" height="299" viewBox="0 0 641 299" fill="none" xmlns="http://www.w3.org/2000/svg">
<path fill-rule="evenodd" clip-rule="evenodd" d="M33.7702 105.645L10.3312 146.243C9.25939 148.099 9.25939 150.386 10.3312 152.243L33.7702 192.84C34.842 194.697 36.8228 195.84 38.9664 195.84H85.8445C87.9881 195.84 89.9688 194.697 91.0406 192.84L114.48 152.243C115.551 150.386 115.551 148.099 114.48 146.243L91.0406 105.645C89.9688 103.789 87.9881 102.645 85.8445 102.645L38.9664 102.645C36.8228 102.645 34.842 103.789 33.7702 105.645ZM2.53696 141.743C-0.142529 146.384 -0.14253 152.102 2.53696 156.743L25.976 197.34C28.6555 201.981 33.6074 204.84 38.9664 204.84H85.8445C91.2035 204.84 96.1554 201.981 98.8349 197.34L122.274 156.743C124.953 152.102 124.953 146.384 122.274 141.743L98.8349 101.145C96.1554 96.5041 91.2035 93.6451 85.8445 93.6451L38.9664 93.6451C33.6074 93.6451 28.6555 96.5041 25.976 101.145L2.53696 141.743Z" fill="#0049C3"/>
<path fill-rule="evenodd" clip-rule="evenodd" d="M46.4305 78.7841L11.8135 138.743C8.06217 145.24 8.06217 153.245 11.8135 159.743L46.4305 219.701C50.1817 226.198 57.1144 230.201 64.617 230.201L133.851 230.201C141.354 230.201 148.286 226.198 152.038 219.701L186.654 159.743C190.406 153.245 190.406 145.24 186.654 138.743L152.037 78.7841C148.286 72.2867 141.354 68.2841 133.851 68.2841L64.617 68.2841C57.1144 68.2841 50.1817 72.2867 46.4305 78.7841ZM4.01923 134.243C-1.33975 143.525 -1.33975 154.961 4.01923 164.243L38.6362 224.201C43.9952 233.483 53.899 239.201 64.617 239.201L133.851 239.201C144.569 239.201 154.473 233.483 159.832 224.201L194.449 164.243C199.808 154.961 199.808 143.525 194.449 134.243L159.832 74.2841C154.473 65.0021 144.569 59.2841 133.851 59.2841L64.617 59.2841C53.899 59.2841 43.9952 65.0021 38.6362 74.2841L4.01923 134.243Z" fill="#0049C3"/>
<path d="M378.194 298.485C375.836 298.485 373.522 298.24 371.252 297.751C369.027 297.261 367.114 296.594 365.512 295.748V290.742C367.247 291.765 369.25 292.566 371.519 293.145C373.789 293.723 375.969 294.013 378.061 294.013C382.333 294.013 385.581 293.056 387.806 291.142C390.076 289.184 391.21 286.403 391.21 282.799C391.21 275.901 387.139 272.452 378.995 272.452C377.304 272.452 375.546 272.608 373.722 272.92C371.942 273.231 370.384 273.654 369.049 274.188L366.513 272.719L368.248 250.825H393.013V255.231H372.921L371.853 268.648C374.478 268.025 377.349 267.713 380.464 267.713C383.757 267.713 386.605 268.358 389.008 269.649C391.411 270.895 393.235 272.653 394.481 274.922C395.772 277.192 396.417 279.817 396.417 282.799C396.417 287.783 394.904 291.654 391.878 294.413C388.852 297.128 384.291 298.485 378.194 298.485Z" fill="black"/>
<path d="M326.922 294.013L337.869 283.066L341.073 279.995C343.654 277.503 345.634 275.501 347.014 273.988C348.393 272.43 349.528 270.784 350.418 269.048C351.308 267.268 351.753 265.377 351.753 263.374C351.753 260.482 350.885 258.257 349.15 256.699C347.459 255.097 344.922 254.296 341.54 254.296C337.357 254.296 333.241 255.809 329.191 258.835V253.762C332.84 251.137 337.201 249.824 342.274 249.824C346.858 249.824 350.44 251.07 353.021 253.562C355.647 256.01 356.959 259.28 356.959 263.374C356.959 265.51 356.47 267.602 355.491 269.649C354.512 271.651 353.155 273.676 351.419 275.723C349.728 277.726 347.414 280.195 344.477 283.132L334.598 293.078H358.828V297.484H326.922V294.013Z" fill="black"/>
<path d="M301.483 298.485C297.567 298.485 294.208 297.506 291.404 295.548C288.601 293.59 286.442 290.786 284.929 287.137C283.461 283.488 282.727 279.172 282.727 274.188C282.727 269.204 283.461 264.887 284.929 261.238C286.398 257.589 288.534 254.786 291.337 252.828C294.141 250.825 297.523 249.824 301.483 249.824C305.444 249.824 308.826 250.825 311.629 252.828C314.433 254.786 316.569 257.589 318.037 261.238C319.506 264.887 320.24 269.204 320.24 274.188C320.24 279.172 319.484 283.488 317.971 287.137C316.502 290.786 314.366 293.59 311.563 295.548C308.759 297.506 305.399 298.485 301.483 298.485ZM301.483 294.079C304.287 294.079 306.712 293.278 308.759 291.676C310.851 290.03 312.453 287.716 313.565 284.734C314.722 281.708 315.301 278.193 315.301 274.188C315.301 270.183 314.744 266.69 313.632 263.708C312.564 260.727 310.984 258.413 308.893 256.766C306.801 255.12 304.331 254.296 301.483 254.296C298.635 254.296 296.166 255.12 294.074 256.766C291.983 258.413 290.381 260.727 289.268 263.708C288.2 266.69 287.666 270.183 287.666 274.188C287.666 278.193 288.222 281.708 289.335 284.734C290.492 287.716 292.094 290.03 294.141 291.676C296.232 293.278 298.68 294.079 301.483 294.079Z" fill="black"/>
<path d="M244.137 294.013L255.084 283.066L258.288 279.995C260.869 277.503 262.849 275.501 264.228 273.988C265.608 272.43 266.743 270.784 267.633 269.048C268.523 267.268 268.968 265.377 268.968 263.374C268.968 260.482 268.1 258.257 266.364 256.699C264.673 255.097 262.137 254.296 258.755 254.296C254.572 254.296 250.456 255.809 246.406 258.835V253.762C250.055 251.137 254.416 249.824 259.489 249.824C264.073 249.824 267.655 251.07 270.236 253.562C272.861 256.01 274.174 259.28 274.174 263.374C274.174 265.51 273.685 267.602 272.706 269.649C271.727 271.651 270.369 273.676 268.634 275.723C266.943 277.726 264.629 280.195 261.692 283.132L251.813 293.078H276.043V297.484H244.137V294.013Z" fill="black"/>
<path d="M516.069 184.209H529.485L523.278 196.224H511.463L516.069 184.209ZM509.861 231.735C505.767 231.735 502.474 230.8 499.982 228.931C497.534 227.018 496.311 224.303 496.311 220.788C496.311 217.183 497.512 214.447 499.915 212.578C502.318 210.664 505.811 209.707 510.395 209.707C512.041 209.707 513.71 209.885 515.401 210.241C517.092 210.597 518.516 211.042 519.673 211.576V210.976C519.673 209.507 518.939 208.395 517.47 207.638C516.046 206.882 514.044 206.503 511.463 206.503C507.591 206.503 504.031 207.282 500.783 208.84V200.029C502.251 199.317 504.165 198.76 506.523 198.36C508.882 197.915 511.396 197.692 514.066 197.692C520.252 197.692 524.969 198.872 528.217 201.23C531.466 203.589 533.09 206.926 533.09 211.243V230.734H520.474V228.197C519.406 229.265 517.938 230.111 516.069 230.734C514.2 231.401 512.13 231.735 509.861 231.735ZM513.999 223.992C515.201 223.992 516.313 223.769 517.337 223.324C518.36 222.879 519.139 222.301 519.673 221.589V219.119C518.027 218.051 516.158 217.517 514.066 217.517C512.82 217.517 511.841 217.806 511.129 218.385C510.462 218.963 510.128 219.764 510.128 220.788C510.128 221.767 510.462 222.546 511.129 223.124C511.797 223.703 512.753 223.992 513.999 223.992Z" fill="#0049C3"/>
<path d="M474.682 198.694H487.564V202.165C488.81 200.874 490.524 199.851 492.704 199.094C494.929 198.338 497.354 197.959 499.98 197.959V208.306C497.176 208.306 494.684 208.684 492.504 209.44C490.323 210.197 488.833 211.309 488.032 212.778V230.734H474.682V198.694Z" fill="#0049C3"/>
<path d="M446.417 231.735C442.323 231.735 439.03 230.8 436.538 228.931C434.091 227.018 432.867 224.303 432.867 220.788C432.867 217.183 434.069 214.447 436.472 212.578C438.875 210.664 442.368 209.707 446.951 209.707C448.598 209.707 450.267 209.885 451.958 210.241C453.649 210.597 455.073 211.042 456.23 211.576V210.976C456.23 209.507 455.495 208.395 454.027 207.638C452.603 206.882 450.6 206.503 448.019 206.503C444.148 206.503 440.588 207.282 437.339 208.84V200.029C438.808 199.317 440.721 198.76 443.08 198.36C445.438 197.915 447.953 197.692 450.623 197.692C456.808 197.692 461.525 198.872 464.774 201.23C468.022 203.589 469.646 206.926 469.646 211.243V230.734H457.031V228.197C455.963 229.265 454.494 230.111 452.625 230.734C450.756 231.401 448.687 231.735 446.417 231.735ZM450.556 223.992C451.757 223.992 452.87 223.769 453.893 223.324C454.917 222.879 455.696 222.301 456.23 221.589V219.119C454.583 218.051 452.714 217.517 450.623 217.517C449.377 217.517 448.398 217.806 447.686 218.385C447.018 218.963 446.684 219.764 446.684 220.788C446.684 221.767 447.018 222.546 447.686 223.124C448.353 223.703 449.31 223.992 450.556 223.992Z" fill="#0049C3"/>
<path d="M413.336 231.735C406.883 231.735 401.855 230.266 398.25 227.329C394.646 224.392 392.844 220.232 392.844 214.847C392.844 209.552 394.468 205.369 397.716 202.298C400.965 199.228 405.637 197.692 411.734 197.692C415.65 197.692 418.988 198.427 421.747 199.895C424.55 201.319 426.664 203.299 428.088 205.836C429.512 208.372 430.224 211.22 430.224 214.38V218.719H405.526C406.594 221.567 409.821 222.991 415.205 222.991C417.341 222.991 419.522 222.835 421.747 222.523C424.016 222.167 425.93 221.678 427.487 221.055V229.399C425.796 230.111 423.682 230.667 421.146 231.067C418.609 231.512 416.006 231.735 413.336 231.735ZM417.608 210.976C417.385 209.552 416.763 208.461 415.739 207.705C414.716 206.904 413.314 206.503 411.534 206.503C409.754 206.503 408.352 206.904 407.329 207.705C406.35 208.506 405.749 209.596 405.526 210.976H417.608Z" fill="#0049C3"/>
<path d="M373.366 231.735C368.204 231.735 363.688 230.756 359.816 228.798C355.945 226.84 352.963 224.036 350.872 220.387C348.78 216.738 347.734 212.422 347.734 207.438C347.734 202.454 348.78 198.137 350.872 194.488C352.963 190.795 355.945 187.969 359.816 186.011C363.688 184.053 368.204 183.074 373.366 183.074C376.704 183.074 379.685 183.386 382.311 184.009C384.936 184.632 387.384 185.633 389.653 187.012V199.762C387.695 198.249 385.493 197.158 383.045 196.491C380.598 195.823 377.772 195.49 374.568 195.49C370.385 195.49 367.203 196.491 365.023 198.493C362.887 200.496 361.819 203.477 361.819 207.438C361.819 211.398 362.931 214.402 365.156 216.449C367.381 218.452 370.518 219.453 374.568 219.453C377.727 219.453 380.553 219.097 383.045 218.385C385.582 217.673 387.962 216.538 390.187 214.981V227.663C385.871 230.378 380.264 231.735 373.366 231.735Z" fill="#0049C3"/>
<path d="M303.36 231.735C299.266 231.735 295.684 231.023 292.613 229.599C289.587 228.13 287.251 226.106 285.605 223.525C283.958 220.944 283.135 218.007 283.135 214.714C283.135 211.465 283.958 208.55 285.605 205.969C287.251 203.388 289.587 201.364 292.613 199.895C295.684 198.427 299.266 197.692 303.36 197.692C307.454 197.692 311.036 198.427 314.107 199.895C317.177 201.364 319.536 203.388 321.182 205.969C322.829 208.55 323.652 211.465 323.652 214.714C323.652 218.007 322.829 220.944 321.182 223.525C319.536 226.106 317.177 228.13 314.107 229.599C311.036 231.023 307.454 231.735 303.36 231.735ZM303.36 221.389C305.363 221.389 306.965 220.788 308.166 219.586C309.368 218.385 309.968 216.761 309.968 214.714C309.968 212.667 309.368 211.065 308.166 209.908C306.965 208.706 305.363 208.105 303.36 208.105C301.358 208.105 299.756 208.706 298.554 209.908C297.397 211.065 296.819 212.667 296.819 214.714C296.819 216.761 297.397 218.385 298.554 219.586C299.756 220.788 301.358 221.389 303.36 221.389Z" fill="#0049C3"/>
<path d="M243.469 198.694H256.352V201.831C257.731 200.496 259.355 199.472 261.224 198.76C263.093 198.048 265.051 197.692 267.098 197.692C271.682 197.692 275.041 198.872 277.177 201.23C279.358 203.544 280.448 206.748 280.448 210.842V230.734H267.032V212.711C267.032 211.198 266.698 210.063 266.03 209.307C265.407 208.506 264.384 208.105 262.96 208.105C260.29 208.105 258.243 209.307 256.819 211.71V230.734H243.469V198.694Z" fill="#0049C3"/>
<path d="M624.62 164.985C621.95 164.985 619.147 164.74 616.21 164.251C613.317 163.761 611.025 163.049 609.334 162.115V152.703C611.159 153.771 613.384 154.683 616.009 155.44C618.679 156.152 621.082 156.508 623.218 156.508C624.509 156.508 625.443 156.441 626.022 156.307C626.6 156.129 626.89 155.796 626.89 155.306C626.89 154.861 626.6 154.527 626.022 154.305C625.488 154.082 624.464 153.771 622.951 153.37L619.881 152.503C617.166 151.702 615.008 150.856 613.406 149.966C611.849 149.032 610.692 147.919 609.935 146.629C609.223 145.294 608.867 143.625 608.867 141.622C608.867 138.018 610.291 135.348 613.139 133.612C615.987 131.832 619.881 130.942 624.82 130.942C627.179 130.942 629.715 131.209 632.43 131.743C635.189 132.233 637.236 132.9 638.571 133.746V143.024C637.191 142.134 635.345 141.378 633.031 140.755C630.717 140.087 628.603 139.753 626.689 139.753C624.064 139.753 622.751 140.198 622.751 141.088C622.751 141.489 623.063 141.823 623.686 142.09C624.353 142.357 625.488 142.668 627.09 143.024L629.893 143.692C632.786 144.448 635.011 145.316 636.568 146.295C638.126 147.274 639.216 148.431 639.839 149.766C640.462 151.056 640.774 152.681 640.774 154.639C640.774 157.798 639.372 160.312 636.568 162.181C633.809 164.05 629.827 164.985 624.62 164.985Z" fill="#0049C3"/>
<path d="M587.569 164.985C583.475 164.985 579.893 164.273 576.822 162.849C573.796 161.38 571.46 159.356 569.813 156.775C568.167 154.194 567.344 151.257 567.344 147.964C567.344 144.715 568.167 141.8 569.813 139.219C571.46 136.638 573.796 134.614 576.822 133.145C579.893 131.677 583.475 130.942 587.569 130.942C591.663 130.942 595.245 131.677 598.316 133.145C601.386 134.614 603.745 136.638 605.391 139.219C607.038 141.8 607.861 144.715 607.861 147.964C607.861 151.257 607.038 154.194 605.391 156.775C603.745 159.356 601.386 161.38 598.316 162.849C595.245 164.273 591.663 164.985 587.569 164.985ZM587.569 154.639C589.572 154.639 591.174 154.038 592.375 152.836C593.577 151.635 594.177 150.011 594.177 147.964C594.177 145.917 593.577 144.315 592.375 143.158C591.174 141.956 589.572 141.355 587.569 141.355C585.567 141.355 583.964 141.956 582.763 143.158C581.606 144.315 581.027 145.917 581.027 147.964C581.027 150.011 581.606 151.635 582.763 152.836C583.964 154.038 585.567 154.639 587.569 154.639Z" fill="#0049C3"/>
<path d="M551.564 164.985C545.645 164.985 540.951 163.539 537.48 160.646C534.053 157.709 532.34 153.504 532.34 148.03C532.34 142.512 534.053 138.285 537.48 135.348C540.951 132.411 545.668 130.942 551.631 130.942C554.301 130.942 556.859 131.209 559.307 131.743C561.754 132.233 563.735 132.945 565.248 133.879V144.226C563.913 143.247 562.311 142.512 560.442 142.023C558.617 141.489 556.704 141.222 554.701 141.222C552.12 141.222 550.051 141.8 548.493 142.957C546.936 144.07 546.157 145.761 546.157 148.03C546.157 150.3 546.914 151.991 548.427 153.103C549.984 154.216 552.053 154.772 554.634 154.772C556.637 154.772 558.573 154.505 560.442 153.971C562.355 153.437 564.091 152.658 565.648 151.635V161.914C564.046 162.893 562.021 163.65 559.574 164.184C557.126 164.718 554.456 164.985 551.564 164.985Z" fill="#0049C3"/>
<path d="M521.323 128.339C519.321 128.339 517.652 127.694 516.317 126.404C514.982 125.113 514.314 123.467 514.314 121.464C514.314 119.506 514.982 117.882 516.317 116.591C517.652 115.256 519.321 114.589 521.323 114.589C523.281 114.589 524.928 115.256 526.263 116.591C527.642 117.926 528.332 119.551 528.332 121.464C528.332 123.422 527.642 125.069 526.263 126.404C524.928 127.694 523.281 128.339 521.323 128.339ZM514.648 131.944H527.998V163.984H514.648V131.944Z" fill="#0049C3"/>
<path d="M487.285 179.336C485.194 179.336 483.035 179.136 480.81 178.735C478.63 178.335 476.739 177.801 475.137 177.133V168.256C478.652 169.769 482.702 170.525 487.285 170.525C490.178 170.525 492.291 169.924 493.626 168.723C494.961 167.566 495.629 165.853 495.629 163.583V161.714C494.427 162.693 492.914 163.472 491.09 164.05C489.31 164.673 487.419 164.985 485.416 164.985C482.034 164.985 479.03 164.273 476.405 162.849C473.824 161.425 471.821 159.422 470.397 156.841C469.018 154.26 468.328 151.301 468.328 147.964C468.328 144.582 469.018 141.6 470.397 139.019C471.821 136.438 473.824 134.458 476.405 133.078C478.986 131.654 481.967 130.942 485.349 130.942C487.441 130.942 489.421 131.298 491.29 132.01C493.159 132.678 494.761 133.635 496.096 134.881V131.944H508.979V161.647C508.979 167.254 507.221 171.593 503.706 174.664C500.19 177.779 494.717 179.336 487.285 179.336ZM488.954 154.639C490.467 154.639 491.802 154.283 492.959 153.571C494.16 152.814 495.05 151.813 495.629 150.567V145.36C495.05 144.114 494.16 143.135 492.959 142.423C491.802 141.711 490.467 141.355 488.954 141.355C486.862 141.355 485.194 141.934 483.948 143.091C482.746 144.248 482.145 145.85 482.145 147.897C482.145 150.033 482.746 151.702 483.948 152.903C485.194 154.06 486.862 154.639 488.954 154.639Z" fill="#0049C3"/>
<path d="M445.66 117.459H459.076L452.869 129.474H441.054L445.66 117.459ZM448.797 164.985C442.344 164.985 437.316 163.516 433.711 160.579C430.107 157.642 428.305 153.482 428.305 148.097C428.305 142.802 429.929 138.619 433.177 135.548C436.426 132.478 441.098 130.942 447.195 130.942C451.111 130.942 454.448 131.677 457.207 133.145C460.011 134.569 462.125 136.549 463.549 139.086C464.973 141.622 465.685 144.47 465.685 147.63V151.969H440.987C442.055 154.817 445.281 156.241 450.666 156.241C452.802 156.241 454.982 156.085 457.207 155.773C459.477 155.417 461.39 154.928 462.948 154.305V162.649C461.257 163.361 459.143 163.917 456.607 164.317C454.07 164.762 451.467 164.985 448.797 164.985ZM453.069 144.226C452.846 142.802 452.223 141.711 451.2 140.955C450.176 140.154 448.775 139.753 446.995 139.753C445.215 139.753 443.813 140.154 442.789 140.955C441.81 141.756 441.21 142.846 440.987 144.226H453.069Z" fill="#0049C3"/>
<path d="M417.654 164.985C413.516 164.985 410.378 163.828 408.242 161.514C406.106 159.2 405.038 156.063 405.038 152.102V140.955H400.633V131.944H405.038V122.332H418.455V131.944H425.597V140.955H418.455V150.167C418.455 151.769 418.744 152.926 419.323 153.638C419.946 154.305 420.969 154.639 422.393 154.639C423.995 154.639 425.531 154.216 426.999 153.371V163.25C425.709 163.828 424.351 164.251 422.927 164.518C421.548 164.829 419.79 164.985 417.654 164.985Z" fill="#0049C3"/>
<path d="M376.734 164.985C372.64 164.985 369.347 164.05 366.855 162.181C364.407 160.268 363.184 157.553 363.184 154.038C363.184 150.433 364.385 147.697 366.788 145.828C369.191 143.914 372.684 142.957 377.268 142.957C378.914 142.957 380.583 143.135 382.274 143.491C383.965 143.847 385.389 144.292 386.546 144.826V144.226C386.546 142.757 385.812 141.645 384.343 140.888C382.919 140.132 380.917 139.753 378.336 139.753C374.464 139.753 370.904 140.532 367.656 142.09V133.279C369.124 132.567 371.038 132.01 373.396 131.61C375.755 131.165 378.269 130.942 380.939 130.942C387.125 130.942 391.842 132.122 395.09 134.48C398.339 136.839 399.963 140.176 399.963 144.493V163.984H387.347V161.447C386.279 162.515 384.811 163.361 382.942 163.984C381.073 164.651 379.003 164.985 376.734 164.985ZM380.872 157.242C382.074 157.242 383.186 157.019 384.21 156.574C385.233 156.129 386.012 155.551 386.546 154.839V152.369C384.9 151.301 383.031 150.767 380.939 150.767C379.693 150.767 378.714 151.056 378.002 151.635C377.335 152.213 377.001 153.014 377.001 154.038C377.001 155.017 377.335 155.796 378.002 156.374C378.67 156.953 379.626 157.242 380.872 157.242Z" fill="#0049C3"/>
<path d="M339.553 131.944H352.435V135.415C353.681 134.124 355.395 133.101 357.575 132.344C359.8 131.588 362.225 131.209 364.851 131.209V141.556C362.047 141.556 359.555 141.934 357.375 142.69C355.194 143.447 353.704 144.559 352.903 146.028V163.984H339.553V131.944Z" fill="#0049C3"/>
<path d="M327.568 164.985C323.43 164.985 320.292 163.828 318.156 161.514C316.02 159.2 314.952 156.063 314.952 152.102V140.955H310.547V131.944H314.952V122.332H328.369V131.944H335.511V140.955H328.369V150.167C328.369 151.769 328.658 152.926 329.237 153.638C329.86 154.305 330.883 154.639 332.307 154.639C333.909 154.639 335.445 154.216 336.913 153.371V163.25C335.623 163.828 334.265 164.251 332.841 164.518C331.462 164.829 329.704 164.985 327.568 164.985Z" fill="#0049C3"/>
<path d="M294.066 164.985C291.396 164.985 288.592 164.74 285.655 164.251C282.763 163.761 280.471 163.049 278.78 162.115V152.703C280.604 153.771 282.829 154.683 285.455 155.44C288.125 156.152 290.528 156.508 292.664 156.508C293.954 156.508 294.889 156.441 295.467 156.307C296.046 156.129 296.335 155.796 296.335 155.306C296.335 154.861 296.046 154.527 295.467 154.305C294.933 154.082 293.91 153.771 292.397 153.37L289.326 152.503C286.612 151.702 284.454 150.856 282.852 149.966C281.294 149.032 280.137 147.919 279.38 146.629C278.668 145.294 278.312 143.625 278.312 141.622C278.312 138.018 279.737 135.348 282.585 133.612C285.433 131.832 289.326 130.942 294.266 130.942C296.624 130.942 299.161 131.209 301.875 131.743C304.634 132.233 306.681 132.9 308.016 133.746V143.024C306.637 142.134 304.79 141.378 302.476 140.755C300.162 140.087 298.048 139.753 296.135 139.753C293.509 139.753 292.197 140.198 292.197 141.088C292.197 141.489 292.508 141.823 293.131 142.09C293.799 142.357 294.933 142.668 296.535 143.024L299.339 143.692C302.231 144.448 304.456 145.316 306.014 146.295C307.571 147.274 308.662 148.431 309.285 149.766C309.908 151.056 310.219 152.681 310.219 154.639C310.219 157.798 308.817 160.312 306.014 162.181C303.255 164.05 299.272 164.985 294.066 164.985Z" fill="#0049C3"/>
<path d="M243.469 117.325H277.311V128.94H257.286V135.348H271.704V145.961H257.286V152.369H277.311V163.984H243.469V117.325Z" fill="#0049C3"/>
<path d="M499.987 98.2349C497.317 98.2349 494.514 97.9901 491.577 97.5006C488.684 97.0111 486.393 96.2991 484.702 95.3646V85.9529C486.526 87.0209 488.751 87.9331 491.377 88.6896C494.047 89.4016 496.45 89.7576 498.586 89.7576C499.876 89.7576 500.811 89.6909 501.389 89.5574C501.968 89.3794 502.257 89.0456 502.257 88.5561C502.257 88.1111 501.968 87.7774 501.389 87.5549C500.855 87.3324 499.832 87.0209 498.319 86.6204L495.248 85.7526C492.534 84.9516 490.375 84.1061 488.773 83.2161C487.216 82.2816 486.059 81.1691 485.302 79.8786C484.59 78.5436 484.234 76.8749 484.234 74.8724C484.234 71.2679 485.658 68.5979 488.506 66.8624C491.354 65.0824 495.248 64.1924 500.188 64.1924C502.546 64.1924 505.083 64.4594 507.797 64.9934C510.556 65.4829 512.603 66.1504 513.938 66.9959V76.2741C512.559 75.3841 510.712 74.6276 508.398 74.0046C506.084 73.3371 503.97 73.0034 502.057 73.0034C499.431 73.0034 498.118 73.4484 498.118 74.3384C498.118 74.7389 498.43 75.0726 499.053 75.3396C499.72 75.6066 500.855 75.9181 502.457 76.2741L505.261 76.9416C508.153 77.6981 510.378 78.5659 511.936 79.5449C513.493 80.5239 514.583 81.6809 515.206 83.0159C515.829 84.3064 516.141 85.9306 516.141 87.8886C516.141 91.0481 514.739 93.5624 511.936 95.4314C509.177 97.3004 505.194 98.2349 499.987 98.2349Z" fill="#0049C3"/>
<path d="M473.218 61.5891C471.215 61.5891 469.546 60.9439 468.211 59.6534C466.876 58.3629 466.209 56.7164 466.209 54.7139C466.209 52.7559 466.876 51.1316 468.211 49.8411C469.546 48.5061 471.215 47.8386 473.218 47.8386C475.176 47.8386 476.822 48.5061 478.157 49.8411C479.537 51.1761 480.226 52.8004 480.226 54.7139C480.226 56.6719 479.537 58.3184 478.157 59.6534C476.822 60.9439 475.176 61.5891 473.218 61.5891ZM466.543 65.1936H479.893V97.2336H466.543V65.1936Z" fill="#0049C3"/>
<path d="M437.943 98.2349C433.849 98.2349 430.556 97.3004 428.064 95.4314C425.616 93.5179 424.393 90.8034 424.393 87.2879C424.393 83.6834 425.594 80.9466 427.997 79.0776C430.4 77.1641 433.893 76.2074 438.477 76.2074C440.123 76.2074 441.792 76.3854 443.483 76.7414C445.174 77.0974 446.598 77.5424 447.755 78.0764V77.4756C447.755 76.0071 447.021 74.8946 445.552 74.1381C444.128 73.3816 442.126 73.0034 439.545 73.0034C435.673 73.0034 432.113 73.7821 428.865 75.3396V66.5286C430.333 65.8166 432.247 65.2604 434.605 64.8599C436.964 64.4149 439.478 64.1924 442.148 64.1924C448.334 64.1924 453.051 65.3716 456.299 67.7301C459.548 70.0886 461.172 73.4261 461.172 77.7426V97.2336H448.556V94.6971C447.488 95.7651 446.02 96.6106 444.151 97.2336C442.282 97.9011 440.212 98.2349 437.943 98.2349ZM442.081 90.4919C443.283 90.4919 444.395 90.2694 445.419 89.8244C446.442 89.3794 447.221 88.8009 447.755 88.0889V85.6191C446.109 84.5511 444.24 84.0171 442.148 84.0171C440.902 84.0171 439.923 84.3064 439.211 84.8849C438.544 85.4634 438.21 86.2644 438.21 87.2879C438.21 88.2669 438.544 89.0456 439.211 89.6241C439.879 90.2026 440.835 90.4919 442.081 90.4919Z" fill="#0049C3"/>
<path d="M400.762 65.1937H413.644V68.6647C414.89 67.3742 416.604 66.3507 418.784 65.5942C421.009 64.8377 423.434 64.4595 426.06 64.4595V74.8057C423.256 74.8057 420.764 75.184 418.584 75.9405C416.403 76.697 414.913 77.8095 414.112 79.278V97.2337H400.762V65.1937Z" fill="#0049C3"/>
<path d="M379.895 98.2349C373.442 98.2349 368.414 96.7664 364.809 93.8294C361.205 90.8924 359.402 86.7316 359.402 81.3471C359.402 76.0516 361.027 71.8686 364.275 68.7981C367.524 65.7276 372.196 64.1924 378.293 64.1924C382.209 64.1924 385.546 64.9266 388.305 66.3951C391.109 67.8191 393.222 69.7994 394.646 72.3359C396.07 74.8724 396.782 77.7204 396.782 80.8799V85.2186H372.085C373.153 88.0666 376.379 89.4906 381.764 89.4906C383.9 89.4906 386.08 89.3349 388.305 89.0234C390.575 88.6674 392.488 88.1779 394.046 87.5549V95.8986C392.355 96.6106 390.241 97.1669 387.704 97.5674C385.168 98.0124 382.565 98.2349 379.895 98.2349ZM384.167 77.4756C383.944 76.0516 383.321 74.9614 382.298 74.2049C381.274 73.4039 379.872 73.0034 378.092 73.0034C376.312 73.0034 374.911 73.4039 373.887 74.2049C372.908 75.0059 372.307 76.0961 372.085 77.4756H384.167Z" fill="#0049C3"/>
<path d="M318.758 65.1936H331.641V68.3309C333.02 66.9959 334.644 65.9724 336.513 65.2604C338.382 64.5484 340.34 64.1924 342.387 64.1924C346.971 64.1924 350.331 65.3716 352.467 67.7301C354.647 70.0441 355.737 73.2481 355.737 77.3421V97.2336H342.321V79.2111C342.321 77.6981 341.987 76.5634 341.319 75.8069C340.696 75.0059 339.673 74.6054 338.249 74.6054C335.579 74.6054 333.532 75.8069 332.108 78.2099V97.2336H318.758V65.1936Z" fill="#0049C3"/>
<path d="M306.407 61.5891C304.405 61.5891 302.736 60.9439 301.401 59.6534C300.066 58.3629 299.398 56.7164 299.398 54.7139C299.398 52.7559 300.066 51.1316 301.401 49.8411C302.736 48.5061 304.405 47.8386 306.407 47.8386C308.365 47.8386 310.012 48.5061 311.347 49.8411C312.726 51.1761 313.416 52.8004 313.416 54.7139C313.416 56.6719 312.726 58.3184 311.347 59.6534C310.012 60.9439 308.365 61.5891 306.407 61.5891ZM299.732 65.1936H313.082V97.2336H299.732V65.1936Z" fill="#0049C3"/>
<path d="M243.469 50.5754H256.085L268.767 78.0097L281.45 50.5754H294.065V97.2337H281.182V76.5412L271.637 97.2337H265.897L256.352 76.5412V97.2337H243.469V50.5754Z" fill="#0049C3"/>
<path d="M514.116 31.1024C510.513 31.1024 507.695 30.1812 505.66 28.3387C503.652 26.4962 502.648 23.9249 502.648 20.6249C502.648 17.3799 503.556 14.8087 505.371 12.9112C507.186 11.0137 509.771 10.0649 513.126 10.0649C515.381 10.0649 517.292 10.5049 518.86 11.3849C520.427 12.2374 521.61 13.4199 522.407 14.9324C523.205 16.4449 523.603 18.1637 523.603 20.0887V21.8212H505.618C505.728 24.0762 506.553 25.7674 508.093 26.8949C509.661 28.0224 511.778 28.5862 514.446 28.5862C515.738 28.5862 517.003 28.4762 518.241 28.2562C519.506 28.0087 520.633 27.6787 521.623 27.2662V29.9474C520.798 30.2774 519.671 30.5524 518.241 30.7724C516.838 30.9924 515.463 31.1024 514.116 31.1024ZM520.633 19.5524C520.578 17.4074 519.918 15.7162 518.653 14.4787C517.388 13.2412 515.532 12.6224 513.085 12.6224C510.692 12.6224 508.863 13.2687 507.598 14.5612C506.333 15.8262 505.673 17.4899 505.618 19.5524H520.633Z" fill="black"/>
<path d="M485.932 31.1025C483.979 31.1025 482.219 30.6762 480.652 29.8237C479.084 28.9712 477.847 27.7475 476.939 26.1525C476.032 24.5575 475.578 22.715 475.578 20.625C475.578 18.5625 476.018 16.7338 476.898 15.1388C477.806 13.5163 479.043 12.265 480.611 11.385C482.206 10.505 483.979 10.065 485.932 10.065C487.829 10.065 489.507 10.4087 490.964 11.0962C492.449 11.7562 493.632 12.7325 494.512 14.025V0H497.688V30.4838H494.594V27.0188C493.549 28.3938 492.312 29.425 490.882 30.1125C489.479 30.7725 487.829 31.1025 485.932 31.1025ZM486.592 28.5863C488.489 28.5863 490.139 28.105 491.542 27.1425C492.972 26.1525 493.962 24.805 494.512 23.1V18.15C493.989 16.445 493.013 15.0975 491.583 14.1075C490.181 13.1175 488.517 12.6225 486.592 12.6225C485.134 12.6225 483.801 12.9662 482.591 13.6537C481.408 14.3137 480.473 15.2487 479.786 16.4587C479.098 17.6687 478.754 19.0575 478.754 20.625C478.754 22.1925 479.098 23.5813 479.786 24.7913C480.473 26.0013 481.408 26.9363 482.591 27.5963C483.801 28.2563 485.134 28.5863 486.592 28.5863Z" fill="black"/>
<path d="M444.816 31.1024C442.671 31.1024 440.76 30.6762 439.082 29.8237C437.432 28.9712 436.14 27.7612 435.205 26.1937C434.298 24.5987 433.844 22.7424 433.844 20.6249C433.844 18.5349 434.311 16.6924 435.246 15.0974C436.181 13.5024 437.474 12.2649 439.124 11.3849C440.801 10.5049 442.699 10.0649 444.816 10.0649C446.934 10.0649 448.818 10.5049 450.468 11.3849C452.145 12.2649 453.451 13.5024 454.386 15.0974C455.321 16.6924 455.789 18.5349 455.789 20.6249C455.789 22.7424 455.321 24.5987 454.386 26.1937C453.479 27.7612 452.186 28.9712 450.509 29.8237C448.859 30.6762 446.961 31.1024 444.816 31.1024ZM444.816 28.5862C447.181 28.5862 449.065 27.8712 450.468 26.4412C451.898 24.9837 452.612 23.0449 452.612 20.6249C452.612 18.1774 451.898 16.2387 450.468 14.8087C449.065 13.3512 447.181 12.6224 444.816 12.6224C442.451 12.6224 440.554 13.3512 439.124 14.8087C437.721 16.2387 437.02 18.1774 437.02 20.6249C437.02 23.0449 437.721 24.9837 439.124 26.4412C440.554 27.8712 442.451 28.5862 444.816 28.5862Z" fill="black"/>
<path d="M426.859 6.39384C426.309 6.39384 425.841 6.20134 425.456 5.81634C425.071 5.43134 424.879 4.96384 424.879 4.41384C424.879 3.86384 425.071 3.39634 425.456 3.01134C425.841 2.62634 426.309 2.43384 426.859 2.43384C427.409 2.43384 427.876 2.62634 428.261 3.01134C428.674 3.39634 428.88 3.86384 428.88 4.41384C428.88 4.96384 428.674 5.43134 428.261 5.81634C427.876 6.20134 427.409 6.39384 426.859 6.39384ZM425.291 10.6838H428.468V30.4838H425.291V10.6838Z" fill="black"/>
<path d="M408.727 10.6838H411.82V14.5613C413.415 11.9763 416.399 10.6838 420.772 10.6838V13.2413C415.987 13.2413 413.03 14.8226 411.903 17.9851V30.4838H408.727V10.6838Z" fill="black"/>
<path d="M395.917 1.40259H399.258L395.958 8.41509H393.112L395.917 1.40259ZM392.493 31.1026C390.101 31.1026 388.203 30.5113 386.801 29.3288C385.426 28.1188 384.738 26.4688 384.738 24.3788C384.738 22.2063 385.412 20.5426 386.76 19.3876C388.107 18.2051 390.06 17.6138 392.617 17.6138C395.477 17.6138 397.938 18.2051 400.001 19.3876V17.9026C400.001 16.1151 399.492 14.7951 398.475 13.9426C397.457 13.0626 395.848 12.6226 393.648 12.6226C391.311 12.6226 389.152 13.0626 387.172 13.9426V11.2613C387.997 10.9038 389.042 10.6151 390.307 10.3951C391.572 10.1751 392.782 10.0651 393.937 10.0651C397.072 10.0651 399.396 10.7801 400.908 12.2101C402.421 13.6126 403.177 15.5651 403.177 18.0676V30.4838H400.207V27.9263C398.475 30.0438 395.903 31.1026 392.493 31.1026ZM393.277 28.5038C394.762 28.5038 396.096 28.2151 397.278 27.6376C398.488 27.0326 399.396 26.1938 400.001 25.1213V21.9451C398.928 21.3126 397.856 20.8588 396.783 20.5838C395.738 20.2813 394.556 20.1301 393.236 20.1301C391.366 20.1301 390.005 20.4876 389.152 21.2026C388.327 21.8901 387.915 22.9488 387.915 24.3788C387.915 27.1288 389.702 28.5038 393.277 28.5038Z" fill="black"/>
<path d="M361.797 10.6837H364.891V13.6537C365.853 12.4162 367.022 11.5087 368.397 10.9312C369.799 10.3537 371.284 10.0649 372.852 10.0649C375.464 10.0649 377.403 10.7524 378.668 12.1274C379.961 13.5024 380.607 15.3449 380.607 17.6549V30.4837H377.431V17.9437C377.431 16.2387 377.018 14.9324 376.193 14.0249C375.368 13.0899 374.048 12.6224 372.233 12.6224C369.181 12.6224 366.761 13.9974 364.973 16.7474V30.4837H361.797V10.6837Z" fill="black"/>
<path d="M353.988 6.39384C353.438 6.39384 352.97 6.20134 352.585 5.81634C352.2 5.43134 352.008 4.96384 352.008 4.41384C352.008 3.86384 352.2 3.39634 352.585 3.01134C352.97 2.62634 353.438 2.43384 353.988 2.43384C354.538 2.43384 355.005 2.62634 355.39 3.01134C355.803 3.39634 356.009 3.86384 356.009 4.41384C356.009 4.96384 355.803 5.43134 355.39 5.81634C355.005 6.20134 354.538 6.39384 353.988 6.39384ZM352.42 10.6838H355.597V30.4838H352.42V10.6838Z" fill="black"/>
<path d="M316.398 10.6837H319.451V13.7774C321.348 11.3024 323.7 10.0649 326.505 10.0649C328.155 10.0649 329.433 10.3537 330.341 10.9312C331.276 11.5087 331.95 12.3749 332.362 13.5299C333.242 12.3474 334.328 11.4812 335.621 10.9312C336.941 10.3537 338.288 10.0649 339.663 10.0649C342.028 10.0649 343.747 10.6699 344.82 11.8799C345.892 13.0899 346.428 14.8774 346.428 17.2424V30.4837H343.293V17.6137C343.293 15.7712 342.963 14.4787 342.303 13.7362C341.671 12.9937 340.53 12.6224 338.88 12.6224C336.515 12.6224 334.562 13.6812 333.022 15.7987C333.105 16.1837 333.146 16.8162 333.146 17.6962V30.4837H330.052V17.6962C330.052 15.8537 329.75 14.5474 329.145 13.7774C328.54 13.0074 327.412 12.6224 325.762 12.6224C323.397 12.6224 321.321 13.9424 319.533 16.5824V30.4837H316.398V10.6837Z" fill="black"/>
<path d="M301.944 31.1024C298.342 31.1024 295.523 30.1812 293.488 28.3387C291.48 26.4962 290.477 23.9249 290.477 20.6249C290.477 17.3799 291.384 14.8087 293.199 12.9112C295.014 11.0137 297.599 10.0649 300.954 10.0649C303.209 10.0649 305.12 10.5049 306.688 11.3849C308.255 12.2374 309.438 13.4199 310.235 14.9324C311.033 16.4449 311.432 18.1637 311.432 20.0887V21.8212H293.447C293.557 24.0762 294.382 25.7674 295.922 26.8949C297.489 28.0224 299.607 28.5862 302.274 28.5862C303.567 28.5862 304.832 28.4762 306.069 28.2562C307.334 28.0087 308.462 27.6787 309.452 27.2662V29.9474C308.627 30.2774 307.499 30.5524 306.069 30.7724C304.667 30.9924 303.292 31.1024 301.944 31.1024ZM308.462 19.5524C308.407 17.4074 307.747 15.7162 306.482 14.4787C305.217 13.2412 303.36 12.6224 300.913 12.6224C298.52 12.6224 296.692 13.2687 295.427 14.5612C294.162 15.8262 293.502 17.4899 293.447 19.5524H308.462Z" fill="black"/>
<path d="M276.091 31.1025C274.496 31.1025 272.929 30.965 271.389 30.69C269.849 30.415 268.584 30.0438 267.594 29.5763V26.5238C270.179 27.6513 272.956 28.215 275.926 28.215C278.401 28.215 280.216 27.8163 281.371 27.0188C282.554 26.2213 283.145 25.025 283.145 23.43C283.145 22.3025 282.897 21.4088 282.402 20.7488C281.935 20.0888 281.248 19.5388 280.34 19.0988C279.433 18.6313 277.865 17.9438 275.637 17.0363C272.915 15.9363 270.935 14.74 269.698 13.4475C268.488 12.1275 267.882 10.4638 267.882 8.45625C267.882 6.99875 268.267 5.70625 269.037 4.57875C269.835 3.45125 270.949 2.585 272.379 1.98C273.809 1.3475 275.459 1.03125 277.329 1.03125C278.841 1.03125 280.202 1.155 281.412 1.4025C282.65 1.6225 283.86 1.99375 285.042 2.51625V5.445C282.732 4.4275 280.313 3.91875 277.783 3.91875C275.583 3.91875 273.919 4.3175 272.791 5.115C271.664 5.9125 271.1 7.02625 271.1 8.45625C271.1 9.41875 271.334 10.2437 271.801 10.9312C272.269 11.6187 272.998 12.2513 273.988 12.8288C275.005 13.4063 276.394 14.0388 278.154 14.7263C280.134 15.4963 281.688 16.225 282.815 16.9125C283.943 17.5725 284.809 18.425 285.414 19.47C286.046 20.4875 286.363 21.8075 286.363 23.43C286.363 25.8775 285.496 27.775 283.764 29.1225C282.031 30.4425 279.474 31.1025 276.091 31.1025Z" fill="black"/>
<path d="M243.729 1.6499H246.946V30.4837H243.729V1.6499Z" fill="black"/>
</svg>
